Coordinates
version=1
nRows=11
nColumns=36
inDegrees=yes

Units are S.I. units (second, meters, Newtons, ...)
If the header above contains a line with 'inDegrees', this indicates whether rotational values are in degrees (yes) or radians (no).

endheader
time	pelvis_tilt	pelvis_list	pelvis_rotation	pelvis_tx	pelvis_ty	pelvis_tz	hip_flexion_r	hip_adduction_r	hip_rotation_r	knee_angle_r	knee_angle_r_beta	ankle_angle_r	subtalar_angle_r	mtp_angle_r	hip_flexion_l	hip_adduction_l	hip_rotation_l	knee_angle_l	knee_angle_l_beta	ankle_angle_l	subtalar_angle_l	mtp_angle_l	lumbar_extension	lumbar_bending	lumbar_rotation	arm_flex_r	arm_add_r	arm_rot_r	elbow_flex_r	pro_sup_r	arm_flex_l	arm_add_l	arm_rot_l	elbow_flex_l	pro_sup_l
      0.63000000	    -11.97568565	     -4.22808631	     -0.05186561	     -0.78045810	      1.17897177	     -0.59877240	     45.71548317	      2.43841212	     -3.29272118	     76.07307076	      1.32772556	     -1.76779830	    -17.65988654	     -5.37805257	     12.18372498	     -6.06749192	     -4.34198552	     42.91225866	      0.74896020	     10.39851674	      1.07171758	     -5.37805257	     -9.08482379	      3.47932422	     -5.68717316	     18.83765181	    -39.81963633	     -3.58525540	    104.56952987	    107.01675596	     55.10081189	    -35.14995744	     36.79784048	     85.62165714	    103.48028869
      0.64000000	    -11.65232303	     -4.22601471	      0.12481368	     -0.76828417	      1.18423666	     -0.59728892	     45.47174153	      2.21136722	     -3.62982541	     74.14339598	      1.29404638	     -2.67716340	    -17.13450929	     -5.39962370	     12.59660453	     -6.30271129	     -4.20190322	     44.39869623	      0.77490343	      5.85412609	      1.25675813	     -5.39962370	     -9.04566004	      3.43894146	     -6.16375918	     17.53710119	    -41.48090693	     -4.67939651	    105.08012228	    107.11964675	     55.35717603	    -37.00117713	     37.48741692	     88.12229632	    103.80712587
      0.65000000	    -11.27330417	     -3.86383327	      0.26896040	     -0.75616558	      1.18886649	     -0.59582375	     45.07338455	      1.79344940	     -3.56050373	     71.96503955	      1.25602689	     -4.03273556	    -17.26488885	     -5.47564038	     13.03098649	     -5.90738956	     -3.82739546	     45.81640322	      0.79964709	     -0.10531462	     -2.14545897	     -5.47564038	     -9.24524721	      2.94630716	     -6.21207252	     15.04157873	    -42.85999005	     -7.45256994	    106.12662672	    107.49323405	     56.07414595	    -38.77349554	     38.95317582	     90.60492976	    103.99757293
      0.66000000	    -10.95427334	     -3.71734855	      0.55723430	     -0.74448520	      1.19228965	     -0.59442178	     44.62303324	      1.51168076	     -3.56577749	     69.52913626	      1.21351235	     -4.62272524	    -16.26642250	     -5.72436637	     13.85991873	     -5.81963970	     -3.35549585	     47.98234821	      0.83744996	     -2.52882244	     -3.30278655	     -5.72436637	     -9.49847629	      2.57060115	     -5.15038240	     10.12105018	    -44.84271520	    -12.66813822	    107.46069507	    108.25397633	     58.31849040	    -39.04757615	     42.07261475	     91.71705656	    103.29819486
      0.67000000	    -10.67239616	     -3.59290136	      0.92643754	     -0.73295550	      1.19473901	     -0.59322212	     44.07238878	      1.17764942	     -3.59457913	     66.83012671	      1.16640575	     -5.01315524	    -15.07217896	     -5.75172413	     14.91309486	     -5.71420732	     -2.91468079	     50.53057927	      0.88192498	     -2.16309188	     -4.24128331	     -5.75172413	     -9.68514319	      2.42745167	     -5.75128787	      8.14361581	    -46.63087567	    -14.23142455	    107.32049601	    108.22773129	     58.61669304	    -41.31977117	     43.06507942	     94.56349620	    103.52378985
      0.68000000	    -10.39043241	     -3.38159471	      1.31286405	     -0.72158492	      1.19613770	     -0.59195836	     43.43715016	      0.76490593	     -3.55506776	     64.01041106	      1.11719243	     -5.09654210	    -13.76625665	     -5.77398095	     16.15050140	     -5.48374688	     -2.56526204	     53.19651857	      0.92845440	     -0.92689363	     -5.25227068	     -5.77398095	     -9.94010131	      2.14288078	     -6.26952284	      5.58037363	    -48.58561747	    -16.07295571	    106.87281626	    108.15249672	     59.03447124	    -43.63651386	     44.18573783	     97.42926725	    103.72847613
      0.69000000	    -10.10230833	     -2.96982581	      1.67630482	     -0.71046165	      1.19621402	     -0.59055122	     42.77539412	      0.12171996	     -3.43759543	     61.27785525	      1.06950033	     -3.53605335	    -10.56614887	     -5.98293011	     17.48092999	     -5.09645395	     -2.48198368	     55.57945214	      0.97004444	      0.03013254	     -5.72738147	     -5.98293011	    -10.62903341	      1.42222678	     -3.41209601	     -5.68286853	    -50.09146645	    -27.55445924	    109.08030154	    107.86694937	     63.64945114	    -42.22597844	     49.99053576	     97.49065512	    102.02942003
      0.70000000	     -9.85387263	     -2.65521302	      2.00353435	     -0.69926168	      1.19533201	     -0.58924966	     41.98543967	     -0.27289131	     -3.23040743	     58.17876255	      1.01541096	     -4.07207695	    -10.13851542	     -6.18287695	     18.81858581	     -4.84028880	     -2.57760608	     57.46763220	      1.00299940	     -0.13184516	     -6.79923749	     -6.18287695	    -11.19560973	      0.99479843	     -1.67674954	    -15.03976675	    -50.93241713	    -36.33961338	    109.87259429	    107.40351019	     66.28425475	    -42.12226771	     53.62651343	     98.95086438	    100.67833893
      0.71000000	     -9.57779981	     -2.26794318	      2.30835644	     -0.68813403	      1.19330610	     -0.58788897	     41.12382252	     -0.76770003	     -2.97268785	     55.13853432	      0.96234897	     -3.78940109	     -8.46255917	     -6.33683020	     20.03339800	     -4.59676375	     -2.90988904	     58.82602399	      1.02670780	      0.08242780	     -7.26350779	     -6.33683020	    -11.83665171	      0.56720785	     -0.22739144	    -24.29819826	    -51.14588156	    -44.60805736	    110.11429427	    106.77400183	     68.65530912	    -42.59181072	     56.80747585	    100.74372303	     99.72087490
      0.72000000	     -9.26991455	     -1.87024571	      2.56727151	     -0.67711303	      1.19039473	     -0.58625013	     40.15823671	     -1.17395452	     -2.63101173	     51.98595162	      0.90732602	     -4.47157974	     -7.88420148	     -6.44658907	     21.12526335	     -4.40415730	     -3.43033012	     59.55665286	      1.03945968	      0.47375339	     -7.57283847	     -6.44658907	    -12.59424439	      0.21484719	      1.06863402	    -33.41379907	    -50.60323979	    -52.41374847	    110.02640921	    105.94713525	     70.70070820	    -43.53353835	     59.56351951	    102.89913956	     98.98201432
      0.73000000	     -8.94954991	     -1.42746925	      2.86625559	     -0.66605014	      1.18666600	     -0.58445533	     39.11149660	     -1.65932912	     -2.39813119	     48.85635635	      0.85270428	     -5.17044294	     -7.18335914	     -6.47372433	     22.09908243	     -4.20312827	     -4.14046423	     59.55904151	      1.03950137	      0.78127557	     -7.71777969	     -6.47372433	    -13.33092857	     -0.17334791	      0.71343189	    -39.19297490	    -50.79305099	    -56.29069645	    108.85383146	    105.50227311	     71.62303505	    -46.83726320	     61.17257940	    106.87701921	     99.17867254
